<svg xmlns="http://www.w3.org/2000/svg" aria-hidden="true" style="position:absolute;width:0;height:0;overflow:hidden">
  <defs>
    <symbol id="arrow_forward" viewBox="0 0 32 32">
      <path stroke-width="1.333" d="M15.993 6.253a.43.43 0 0 1 .259.081l.082.07 9.264 9.264a.5.5 0 0 1 .121.167v.001q.03.071.031.165c.001.094-.012.116-.031.163v.001a.6.6 0 0 1-.121.167l-9.272 9.264c-.122.12-.227.155-.337.155-.108 0-.204-.033-.315-.147l-.007-.007-.069-.081c-.056-.079-.075-.157-.075-.243s.02-.163.075-.242l.069-.081 8.482-8.482H6.269c-.163 0-.259-.047-.34-.128h-.001a.44.44 0 0 1-.128-.341c0-.162.046-.26.128-.341h.001c.081-.081.177-.127.34-.128h17.88l-8.474-8.474a.47.47 0 0 1-.141-.246l-.008-.09a.42.42 0 0 1 .141-.326l.001-.001a.42.42 0 0 1 .324-.142z"/>
    </symbol>
    <symbol id="arrow_back" viewBox="0 0 32 32">
      <path stroke-width="1.333" d="M16.01 6.249c.114 0 .212.035.322.145a.45.45 0 0 1 .145.332.43.43 0 0 1-.145.324L7.85 15.532h17.88a.45.45 0 0 1 .477.469c0 .16-.046.255-.129.337a.46.46 0 0 1-.348.132H7.85l8.474 8.473c.11.11.147.212.148.335v.001a.4.4 0 0 1-.074.246l-.069.082a.42.42 0 0 1-.323.142.46.46 0 0 1-.341-.151l-9.264-9.264a.5.5 0 0 1-.121-.167v-.001q-.03-.071-.031-.165c-.001-.094.012-.116.031-.163v-.001a.6.6 0 0 1 .121-.167l9.267-9.267a.47.47 0 0 1 .342-.152z"/>
    </symbol>
    <symbol id="close" viewBox="0 0 32 32">
      <path stroke-width="1.333" d="M23.466 7.9c.219 0 .355.065.462.172s.172.242.172.461-.065.355-.172.462L16.923 16l7.005 7.004c.107.107.172.243.172.462s-.065.355-.172.462-.243.172-.462.172-.355-.065-.462-.172L16 16.923l-7.005 7.005c-.107.107-.243.172-.462.172s-.354-.065-.461-.172-.172-.243-.172-.462.065-.355.172-.462L15.076 16 8.072 8.995c-.107-.107-.172-.243-.172-.462s.065-.354.172-.461.242-.172.461-.172.355.065.462.172L16 15.076l7.004-7.004c.107-.107.243-.172.462-.172"/>
    </symbol>
    <symbol id="Facebook" viewBox="0 0 32 32">
      <path d="M29.333 16.405C29.333 8.996 23.364 2.99 16 2.99S2.667 8.996 2.667 16.405c0 6.696 4.876 12.245 11.25 13.252v-9.374h-3.385v-3.878h3.385V13.45c0-3.362 1.991-5.219 5.036-5.219 1.459 0 2.985.262 2.985.262v3.301h-1.681c-1.656 0-2.173 1.034-2.173 2.095v2.516h3.698l-.591 3.878h-3.107v9.374c6.374-1.006 11.25-6.556 11.25-13.252z"/>
    </symbol>
    <symbol id="Instagram" viewBox="0 0 32 32">
      <path d="M15.998 6.161c3.206 0 3.585.014 4.846.071 1.172.052 1.804.248 2.226.412.558.216.961.478 1.378.895.422.422.679.82.9 1.378.164.422.361 1.059.412 2.226.056 1.266.071 1.645.071 4.847s-.014 3.585-.071 4.847c-.052 1.172-.248 1.804-.412 2.227a3.7 3.7 0 0 1-.895 1.377c-.422.422-.82.679-1.378.9-.422.164-1.06.361-2.226.412-1.266.056-1.645.071-4.847.071s-3.585-.014-4.847-.071c-1.172-.052-1.804-.248-2.226-.412a3.7 3.7 0 0 1-1.378-.895 3.8 3.8 0 0 1-.9-1.378c-.164-.422-.361-1.06-.412-2.226-.056-1.266-.071-1.645-.071-4.847s.014-3.585.071-4.847c.052-1.172.248-1.804.412-2.226.216-.558.478-.961.895-1.378.422-.422.82-.679 1.378-.9.422-.164 1.059-.361 2.226-.412 1.261-.056 1.641-.071 4.847-.071zm0-2.16c-3.258 0-3.665.014-4.945.071-1.275.056-2.151.262-2.91.558a5.85 5.85 0 0 0-2.127 1.387A5.9 5.9 0 0 0 4.629 8.14c-.295.764-.502 1.636-.558 2.91C4.015 12.335 4 12.742 4 15.999s.014 3.665.071 4.945c.056 1.275.262 2.151.558 2.91a5.9 5.9 0 0 0 1.387 2.127 5.9 5.9 0 0 0 2.123 1.383c.764.295 1.636.502 2.91.558 1.279.056 1.687.071 4.945.071s3.666-.014 4.945-.071c1.275-.056 2.151-.262 2.91-.558.787-.305 1.458-.717 2.123-1.383s1.078-1.336 1.383-2.123c.295-.764.502-1.635.558-2.91.056-1.279.071-1.687.071-4.945s-.014-3.665-.071-4.945c-.056-1.275-.262-2.151-.558-2.91a5.6 5.6 0 0 0-1.373-2.133 5.9 5.9 0 0 0-2.123-1.383c-.764-.295-1.635-.502-2.91-.558-1.284-.061-1.692-.075-4.949-.075L15.999 4z"/>
      <path d="M15.997 9.836a6.164 6.164 0 1 0 6.163 6.163 6.164 6.164 0 0 0-6.163-6.163m0 10.161a3.998 3.998 0 1 1 0-7.996 3.998 3.998 0 0 1 0 7.996M23.842 9.592a1.439 1.439 0 1 1-2.877 0 1.439 1.439 0 0 1 2.877 0"/>
    </symbol>
    <symbol id="logo" viewBox="0 0 75 32">
      <path d="m13.139 18.964-.076-.148c-.287-.551-.979-.909-1.593-.824-.527.073-.967.511-1.121 1.13-.166.668-.046 1.311.194 1.937.392 1.02 1.012 1.893 1.776 2.665.528.534.95.525 1.47-.018.722-.754 1.308-1.601 1.714-2.567.24-.569.416-1.155.443-1.777.019-.449-.039-.882-.294-1.267-.325-.49-.859-.634-1.384-.375a2.05 2.05 0 0 0-.789.698c-.117.171-.219.351-.34.546m10.168 2.868a5.3 5.3 0 0 1-.589 2.388c-.657 1.264-1.608 2.243-2.882 2.899-1.255.647-2.541.721-3.856.206a30 30 0 0 1-1.586-.665c-.945-.436-1.886-.432-2.853-.07-.679.254-1.368.486-2.064.687a5.6 5.6 0 0 1-2.215.199c-.65-.074-1.2-.362-1.675-.798-.607-.556-1.093-1.205-1.399-1.97-.393-.981-.298-1.927.273-2.821.448-.7 1.052-1.258 1.638-1.836.426-.42.842-.851 1.235-1.302.452-.521.723-1.149.947-1.794.208-.599.397-1.204.602-1.804.148-.433.42-.794.689-1.159.647-.879 1.57-1.264 2.589-1.49 1.208-.268 2.261.078 3.159.872.553.489 1.031 1.061 1.546 1.594.876.907 1.806 1.754 2.847 2.469.518.356 1.062.675 1.577 1.037.736.518 1.356 1.146 1.735 1.98.198.437.277.9.283 1.377zM11.447 9.358a4.9 4.9 0 0 1-.436 2.084c-.342.731-.836 1.309-1.648 1.534-.669.185-1.286.036-1.861-.323-.757-.473-1.269-1.159-1.65-1.948a6.8 6.8 0 0 1-.653-3.625c.067-.748.279-1.448.697-2.084.721-1.097 2.017-1.407 3.144-.74.731.433 1.243 1.066 1.633 1.804.531 1.007.784 2.084.775 3.298zM19.317 7.351c.001 1.372-.252 2.524-.876 3.577-.349.589-.795 1.09-1.412 1.413-.902.471-1.895.299-2.603-.438-.561-.584-.865-1.294-1.028-2.071-.281-1.344-.136-2.657.34-3.934.23-.618.567-1.184 1.051-1.64.446-.42.953-.75 1.586-.802.805-.067 1.437.274 1.942.877.521.622.781 1.359.91 2.145.056.339.072.685.091.873zM.444 13.966c.011-.613.128-1.189.492-1.689.476-.653 1.143-.894 1.93-.845.797.05 1.475.394 2.084.88 1.085.865 1.802 1.969 2.088 3.336.126.604.136 1.215-.076 1.803-.364 1.012-1.193 1.535-2.274 1.451-.672-.052-1.264-.321-1.807-.704C1.71 17.373.957 16.251.575 14.88c-.082-.294-.09-.609-.132-.915zM25.073 12.054c-.181 1.904-.956 3.375-2.458 4.435a2.9 2.9 0 0 1-1.398.517c-.866.088-1.654-.4-1.98-1.234-.286-.734-.27-1.484-.089-2.231.346-1.438 1.119-2.599 2.334-3.451a2.68 2.68 0 0 1 1.804-.476c.763.064 1.407.636 1.63 1.477.09.34.116.697.158.964zM60.777 18.368h1.752l-2.31 2.795 2.514 3.035h-1.804l-2.383-2.957v2.957h-1.591v-5.831h1.591v2.832l2.232-2.832zM55.854 21.273q0 .73-.198 1.293a2.55 2.55 0 0 1-.568.954 2.4 2.4 0 0 1-.897.584 3.3 3.3 0 0 1-1.179.198q-.615 0-1.132-.198a2.5 2.5 0 0 1-.892-.584 2.7 2.7 0 0 1-.584-.954 3.8 3.8 0 0 1-.203-1.293q0-.97.344-1.643c.344-.673.556-.789.98-1.022q.636-.35 1.518-.349.819 0 1.45.349.636.35.996 1.022.365.673.365 1.643m-4.032 0q0 .573.125.965c.125.392.214.457.391.589q.266.198.694.198.422 0 .683-.198.266-.198.386-.589.125-.391.125-.965 0-.579-.125-.96-.12-.386-.386-.579c-.266-.193-.409-.193-.694-.193q-.632 0-.918.433-.282.433-.282 1.299zM49.099 18.368v5.831h-1.596v-4.636h-2.112v4.636H43.8v-5.831zM39.946 18.248q1.173 0 1.799.511c.626.511.626.859.626 1.554v3.885H41.26l-.308-.793h-.042q-.25.313-.511.511c-.261.198-.374.229-.6.292a3.1 3.1 0 0 1-.824.094q-.517 0-.928-.198a1.47 1.47 0 0 1-.641-.605q-.234-.412-.235-1.043 0-.928.652-1.366.653-.444 1.956-.49l1.012-.031v-.256q0-.459-.24-.673c-.24-.214-.382-.214-.668-.214q-.423 0-.829.12c-.406.12-.542.181-.814.302l-.527-1.074a4.5 4.5 0 0 1 1.038-.386 5 5 0 0 1 1.194-.141zm.845 3.249-.615.021q-.773.021-1.074.276a.84.84 0 0 0-.297.673q0 .364.214.522.214.151.558.151.512 0 .86-.302.354-.303.355-.861zM35.972 24.198H34.36v-6.279h-1.867l-.136 1.069q-.073.579-.151 1.168-.078.59-.167 1.121a20 20 0 0 1-.167.934 4.6 4.6 0 0 1-.37 1.137 1.67 1.67 0 0 1-.631.709q-.396.245-1.038.245a2.6 2.6 0 0 1-.772-.114v-1.325q.136.046.271.078.135.026.297.026a.46.46 0 0 0 .344-.136q.14-.14.25-.475.11-.339.219-.934.047-.261.125-.735.078-.48.177-1.121.1-.646.203-1.408.11-.762.209-1.585h4.814v7.625zM71.797 8.483q1.175 0 1.799.511c.624.511.626.859.626 1.554v3.885h-1.111l-.308-.793h-.041q-.25.313-.511.511c-.261.198-.374.229-.6.292a3.1 3.1 0 0 1-.824.094q-.516 0-.928-.198a1.47 1.47 0 0 1-.641-.605q-.235-.412-.235-1.043 0-.928.652-1.366.651-.444 1.955-.49l1.012-.031v-.256q0-.459-.24-.673c-.24-.214-.383-.214-.667-.214q-.423 0-.829.12c-.406.12-.543.181-.814.303l-.527-1.074a4.5 4.5 0 0 1 1.038-.386 5 5 0 0 1 1.194-.141m.845 3.249-.615.021q-.772.021-1.075.276a.84.84 0 0 0-.297.673q0 .365.214.522.214.151.558.151.51 0 .861-.302.355-.303.355-.861v-.48zM66.831 8.603h1.753l-2.31 2.795 2.514 3.035h-1.805L64.6 11.476v2.957h-1.591V8.602H64.6v2.832zM57.742 8.603v2.243h2.222V8.603h1.591v5.831h-1.591V12.03h-2.222v2.404h-1.591V8.603zM50.205 8.603v2.305q0 .178-.016.448-.01.266-.031.542c-.021.276-.028.349-.042.495q-.02.219-.031.297l2.691-4.089h1.914v5.831h-1.538v-2.326q0-.287.021-.631.021-.35.047-.657c.026-.307.03-.36.036-.464l-2.681 4.078h-1.909V8.601h1.539zM47.791 9.797h-1.909v4.636h-1.591V9.797h-1.914V8.603h5.413v1.194zM39.112 8.483q1.173 0 1.799.511c.626.511.626.859.626 1.554v3.885h-1.111l-.308-.793h-.042q-.25.313-.511.511c-.261.198-.374.229-.6.292a3.1 3.1 0 0 1-.824.094q-.517 0-.928-.198a1.47 1.47 0 0 1-.641-.605q-.234-.412-.235-1.043 0-.928.652-1.366.653-.444 1.956-.49l1.012-.031v-.256q0-.459-.24-.673c-.24-.214-.382-.214-.668-.214q-.423 0-.829.12c-.406.12-.542.181-.814.303l-.527-1.074a4.5 4.5 0 0 1 1.038-.386 5 5 0 0 1 1.194-.141zm.845 3.249-.615.021q-.772.021-1.074.276a.84.84 0 0 0-.297.673q0 .365.214.522.215.151.558.151.512 0 .861-.302.354-.303.355-.861v-.48zM36.103 14.434h-1.846l-1.773-2.884-1.773 2.884H28.98l2.529-3.932-2.368-3.692h1.784l1.643 2.743L34.18 6.81h1.742l-2.394 3.781z"/>
    </symbol>
    <symbol id="menu" viewBox="0 0 32 32">
      <path d="M4.936 24.295q-.481 0-.808-.329c-.327-.329-.327-.493-.327-.82q0-.483.327-.807c.327-.324.488-.323.808-.323h22.127q.481 0 .812.329c.331.329.331.49.331.812q0 .492-.331.814c-.331.322-.492.323-.812.323zm0-7.159q-.481 0-.808-.329c-.327-.329-.327-.49-.327-.812q0-.483.327-.806c.327-.323.488-.323.808-.323h22.127q.481 0 .812.329c.331.329.331.49.331.812q0 .483-.331.806c-.331.323-.492.323-.812.323zm0-7.152q-.481 0-.808-.329c-.327-.329-.327-.493-.327-.82q0-.483.327-.806c.327-.323.488-.323.808-.323h22.127q.481 0 .812.329c.331.329.331.49.331.812q0 .492-.331.815c-.331.323-.492.323-.812.323z"/>
    </symbol>
    <symbol id="star-filled" viewBox="0 0 32 32">
      <path d="M14.761 4.816c.458-1.089 2.019-1.089 2.478 0l2.705 6.425c.193.459.63.772 1.132.812l7.021.556c1.19.094 1.672 1.561.766 2.328l-5.349 4.527a1.32 1.32 0 0 0-.432 1.314l1.634 6.769c.277 1.147-.986 2.053-2.004 1.439l-6.011-3.627a1.36 1.36 0 0 0-1.399 0l-6.011 3.627c-1.018.615-2.281-.292-2.004-1.439l1.634-6.769a1.32 1.32 0 0 0-.432-1.314l-5.35-4.527c-.906-.767-.424-2.234.766-2.328l7.021-.556c.502-.04.938-.353 1.132-.812l2.705-6.425z"/>
    </symbol>
    <symbol id="star-half" viewBox="0 0 32 32">
      <path stroke-width="1.333" d="M15.375 5.076c.229-.545 1.021-.545 1.25 0l2.704 6.424a2.01 2.01 0 0 0 1.694 1.219l7.021.556c.61.048.828.78.388 1.154l-5.35 4.527a1.99 1.99 0 0 0-.65 1.98l1.635 6.768c.133.549-.482 1.031-1.013.711h-.001l-6.009-3.626a2.03 2.03 0 0 0-2.089 0l-6.01 3.626c-.531.32-1.146-.162-1.013-.711l1.635-6.768a1.99 1.99 0 0 0-.65-1.98l-5.35-4.527a.656.656 0 0 1 .388-1.154l7.021-.556A2.01 2.01 0 0 0 12.67 11.5l2.704-6.424z"/>
    </symbol>
    <symbol id="star-outline" viewBox="0 0 32 32">
      <path stroke-width="2.667" d="m16.01 5.335 2.704 6.424a2.67 2.67 0 0 0 2.255 1.624l7.011.555-5.329 4.509a2.65 2.65 0 0 0-.866 2.646l1.63 6.754-.005.004-.01-.005-6.012-3.628a2.69 2.69 0 0 0-2.776 0L8.6 27.846l-.01.005-.007-.004 1.631-6.754a2.65 2.65 0 0 0-.728-2.519l-.138-.126-5.331-4.509 7.012-.555a2.67 2.67 0 0 0 2.255-1.624l2.703-6.424.012-.001.01.001z"/>
    </symbol>
    <symbol id="add" viewBox="0 0 32 32">
      <path d="M14.864 17.136H7.603q-.481 0-.808-.329c-.327-.329-.327-.49-.327-.812q0-.483.327-.806c.327-.323.488-.323.808-.323h7.261V7.605q0-.48.329-.812c.329-.332.49-.332.812-.332q.483 0 .806.332c.323.332.323.492.323.812v7.261h7.261q.48 0 .812.329c.332.329.332.49.332.812q0 .483-.332.806c-.332.323-.492.323-.812.323h-7.261v7.261q0 .481-.329.808c-.329.327-.49.327-.812.327q-.483 0-.806-.327c-.323-.327-.323-.488-.323-.808z"/>
    </symbol>
  </defs>
</svg>