<svg width="158" height="52" viewBox="0 0 158 52" fill="none" xmlns="http://www.w3.org/2000/svg">
<path d="M27.117 33.1466C27.0532 33.0217 27.0047 32.9254 26.955 32.83C26.3418 31.6531 24.8642 30.8888 23.5523 31.0696C22.4256 31.2247 21.4869 32.1614 21.1571 33.4838C20.8016 34.9098 21.0583 36.2845 21.5712 37.6211C22.4079 39.8007 23.7328 41.6649 25.3647 43.3146C26.4934 44.4554 27.3935 44.4361 28.5044 43.2755C30.0466 41.6639 31.2982 39.8545 32.1666 37.7922C32.6785 36.5772 33.0553 35.3257 33.1124 33.997C33.1538 33.0374 33.0301 32.1132 32.484 31.2895C31.7903 30.2436 30.6492 29.9353 29.5269 30.4876C28.8291 30.8309 28.2776 31.3436 27.8421 31.9794C27.5925 32.344 27.3744 32.7299 27.117 33.1466ZM48.8381 39.2736C48.8124 41.0708 48.4074 42.7829 47.5799 44.3737C46.1755 47.0728 44.144 49.1648 41.424 50.5672C38.7429 51.9495 35.9953 52.1077 33.1878 51.0072C32.0482 50.5603 30.912 50.0989 29.8008 49.5868C27.782 48.6559 25.7715 48.6648 23.7069 49.438C22.2568 49.9811 20.7851 50.4763 19.2982 50.9064C17.7582 51.352 16.173 51.5148 14.5662 51.3314C13.1772 51.173 12.0038 50.5578 10.9871 49.6267C9.69039 48.4394 8.65277 47.053 7.99806 45.418C7.15892 43.3227 7.36053 41.3013 8.58224 39.3921C9.53865 37.8973 10.83 36.7047 12.081 35.4709C12.9904 34.5741 13.8807 33.6532 14.7183 32.6898C15.6847 31.5779 16.2619 30.2362 16.7402 28.8577C17.1843 27.5788 17.5876 26.2858 18.0258 25.0048C18.3424 24.0793 18.9234 23.3095 19.4975 22.5292C20.8796 20.651 22.851 19.829 25.0278 19.3453C27.608 18.7718 29.8567 19.5114 31.7755 21.2086C32.9562 22.2527 33.9782 23.4758 35.0772 24.6131C36.949 26.5502 38.9346 28.3593 41.1592 29.8874C42.2665 30.6481 43.4287 31.3298 44.5269 32.1028C46.0981 33.2088 47.4238 34.5507 48.2327 36.3322C48.6565 37.2653 48.8238 38.2543 48.8381 39.2736Z" fill="#332C22"/>
<path d="M23.5021 12.6259C23.5064 14.0644 23.2515 15.6179 22.5697 17.0774C21.8403 18.6384 20.7847 19.8732 19.049 20.3536C17.6207 20.7492 16.3021 20.4306 15.0729 19.6627C13.4558 18.6529 12.3622 17.1873 11.5489 15.5018C10.3678 13.054 9.9126 10.4644 10.1547 7.75814C10.2977 6.15952 10.7497 4.66526 11.6429 3.30611C13.1832 0.962228 15.9517 0.299741 18.3591 1.72605C19.9209 2.6515 21.015 4.0025 21.8469 5.58055C22.9806 7.73113 23.5207 10.0312 23.5021 12.6259Z" fill="#332C22"/>
<path d="M40.3133 8.33957C40.3158 11.2708 39.7747 13.7302 38.4414 15.9804C37.6959 17.2388 36.7425 18.3098 35.4241 18.9987C33.4972 20.0057 31.3757 19.6368 29.8629 18.062C28.6654 16.8155 28.0157 15.2981 27.6676 13.6375C27.0663 10.7666 27.3766 7.96218 28.3932 5.23445C28.8853 3.91427 29.6042 2.70612 30.6373 1.7315C31.5893 0.83343 32.674 0.129985 34.0256 0.0177295C35.7451 -0.125097 37.0951 0.603662 38.1745 1.89167C39.2869 3.21928 39.8425 4.79368 40.1183 6.47421C40.2371 7.19881 40.2729 7.93704 40.3133 8.33957Z" fill="#332C22"/>
<path d="M0 22.4697C0.0237918 21.1605 0.273644 19.9298 1.05202 18.862C2.069 17.4665 3.49287 16.9518 5.17513 17.0572C6.87729 17.1639 8.32628 17.8992 9.62721 18.9364C11.9445 20.7842 13.477 23.143 14.0867 26.0618C14.3566 27.3529 14.3767 28.6563 13.9249 29.9139C13.1484 32.0763 11.377 33.193 9.06822 33.0142C7.63185 32.903 6.36756 32.3286 5.2075 31.511C2.70693 29.7484 1.09699 27.3524 0.281794 24.4238C0.106771 23.7951 0.0897841 23.1222 0 22.4697Z" fill="#332C22"/>
<path d="M52.6112 18.386C52.2237 22.4522 50.5695 25.5954 47.3615 27.8593C46.4705 28.488 45.4686 28.8519 44.3742 28.9628C42.5237 29.1505 40.841 28.1086 40.1453 26.3259C39.5338 24.7588 39.5694 23.155 39.9541 21.5594C40.6942 18.4881 42.3452 16.0071 44.9397 14.1883C46.0881 13.3831 47.3912 13.0545 48.7923 13.1714C50.4212 13.3072 51.7982 14.5293 52.2742 16.3265C52.4667 17.0532 52.5216 17.816 52.6112 18.386Z" fill="#332C22"/>
<path d="M128.88 31.8728H132.623L127.688 37.8442L133.058 44.328H129.203L124.112 38.0113V44.328H120.714V31.8728H124.112V37.9222L128.88 31.8728Z" fill="#332C22"/>
<path d="M118.364 38.078C118.364 39.1177 118.222 40.0387 117.94 40.8408C117.665 41.643 117.261 42.3225 116.726 42.8796C116.199 43.4292 115.56 43.8451 114.81 44.1273C114.067 44.4095 113.228 44.5507 112.292 44.5507C111.416 44.5507 110.61 44.4095 109.874 44.1273C109.147 43.8451 108.512 43.4292 107.969 42.8796C107.435 42.3225 107.019 41.643 106.722 40.8408C106.432 40.0387 106.287 39.1177 106.287 38.078C106.287 36.6965 106.532 35.5268 107.022 34.5687C107.513 33.6106 108.211 32.8827 109.117 32.3851C110.023 31.8875 111.104 31.6387 112.359 31.6387C113.525 31.6387 114.557 31.8875 115.456 32.3851C116.362 32.8827 117.071 33.6106 117.584 34.5687C118.104 35.5268 118.364 36.6965 118.364 38.078ZM109.752 38.078C109.752 38.8949 109.841 39.5819 110.019 40.139C110.197 40.696 110.476 41.1156 110.855 41.3979C111.234 41.6801 111.727 41.8212 112.336 41.8212C112.938 41.8212 113.425 41.6801 113.796 41.3979C114.175 41.1156 114.449 40.696 114.62 40.139C114.799 39.5819 114.888 38.8949 114.888 38.078C114.888 37.2535 114.799 36.5703 114.62 36.0281C114.449 35.4785 114.175 35.0663 113.796 34.7915C113.417 34.5167 112.923 34.3793 112.314 34.3793C111.416 34.3793 110.762 34.6875 110.353 35.3039C109.952 35.9204 109.752 36.8451 109.752 38.078Z" fill="#332C22"/>
<path d="M103.936 31.8728V44.328H100.527V34.424H96.0151V44.328H92.6172V31.8728H103.936Z" fill="#332C22"/>
<path d="M84.3819 31.6165C86.053 31.6165 87.3342 31.9804 88.2254 32.7082C89.1167 33.4361 89.5623 34.5427 89.5623 36.0281V44.3279H87.1893L86.532 42.6345H86.4429C86.0864 43.0802 85.7225 43.4441 85.3511 43.7263C84.9798 44.0085 84.5527 44.2165 84.07 44.3502C83.5872 44.4839 83.0005 44.5507 82.3097 44.5507C81.5745 44.5507 80.9134 44.4096 80.3267 44.1274C79.7474 43.8451 79.2906 43.4144 78.9564 42.8351C78.6222 42.2483 78.4551 41.5056 78.4551 40.6069C78.4551 39.2849 78.9193 38.312 79.8477 37.6881C80.776 37.0568 82.1686 36.7077 84.0254 36.6409L86.1867 36.574V36.0281C86.1867 35.3746 86.0159 34.8955 85.6742 34.591C85.3326 34.2865 84.8572 34.1342 84.2482 34.1342C83.6466 34.1342 83.0562 34.2196 82.4768 34.3905C81.8975 34.5613 81.3182 34.7767 80.7389 35.0366L79.6137 32.7417C80.2747 32.3926 81.0137 32.1178 81.8307 31.9173C82.6551 31.7167 83.5055 31.6165 84.3819 31.6165ZM86.1867 38.5571L84.8721 38.6016C83.7729 38.6313 83.0079 38.8282 82.5771 39.1921C82.1538 39.556 81.9421 40.0351 81.9421 40.6292C81.9421 41.1491 82.0943 41.5205 82.3989 41.7433C82.7034 41.9587 83.1007 42.0664 83.5909 42.0664C84.3188 42.0664 84.9315 41.851 85.4291 41.4202C85.9342 40.9894 86.1867 40.3767 86.1867 39.582V38.5571Z" fill="#332C22"/>
<path d="M75.8932 44.3279H72.4507V30.9146H68.4624C68.3732 31.6127 68.2767 32.374 68.1727 33.1984C68.0687 34.0228 67.961 34.8546 67.8496 35.6939C67.7382 36.5332 67.6194 37.3316 67.4931 38.0891C67.3743 38.8467 67.2555 39.5114 67.1366 40.0833C66.9435 41.034 66.6799 41.8435 66.3457 42.512C66.0189 43.173 65.5695 43.678 64.9976 44.0271C64.4332 44.3762 63.6942 44.5507 62.7806 44.5507C62.4761 44.5507 62.1828 44.5284 61.9005 44.4838C61.6257 44.4393 61.3695 44.3799 61.1318 44.3056V41.4759C61.3249 41.5427 61.518 41.5984 61.7111 41.643C61.9043 41.6801 62.1159 41.6987 62.3462 41.6987C62.6432 41.6987 62.8883 41.6021 63.0814 41.409C63.282 41.2085 63.4602 40.8706 63.6162 40.3952C63.7722 39.9125 63.9281 39.2478 64.0841 38.4011C64.1509 38.0297 64.2401 37.5061 64.3515 36.8302C64.4629 36.1469 64.5891 35.3485 64.7303 34.435C64.8714 33.514 65.0162 32.5114 65.1647 31.427C65.3207 30.3427 65.4693 29.2138 65.6104 28.0403H75.8932V44.3279Z" fill="#332C22"/>
<path d="M152.421 10.7571C154.092 10.7571 155.373 11.121 156.264 11.8489C157.156 12.5767 157.601 13.6834 157.601 15.1688V23.4685H155.228L154.571 21.7752H154.482C154.125 22.2208 153.762 22.5847 153.39 22.8669C153.019 23.1492 152.592 23.3571 152.109 23.4908C151.626 23.6245 151.04 23.6913 150.349 23.6913C149.614 23.6913 148.953 23.5502 148.366 23.268C147.786 22.9858 147.33 22.555 146.995 21.9757C146.661 21.389 146.494 20.6462 146.494 19.7476C146.494 18.4255 146.958 17.4526 147.887 16.8287C148.815 16.1974 150.208 15.8483 152.064 15.7815L154.226 15.7147V15.1688C154.226 14.5152 154.055 14.0361 153.713 13.7316C153.372 13.4271 152.896 13.2749 152.287 13.2749C151.686 13.2749 151.095 13.3603 150.516 13.5311C149.937 13.7019 149.357 13.9173 148.778 14.1773L147.653 11.8823C148.314 11.5332 149.053 11.2584 149.87 11.0579C150.694 10.8573 151.545 10.7571 152.421 10.7571ZM154.226 17.6977L152.911 17.7423C151.812 17.772 151.047 17.9688 150.616 18.3327C150.193 18.6966 149.981 19.1757 149.981 19.7698C149.981 20.2897 150.133 20.6611 150.438 20.8839C150.742 21.0993 151.14 21.207 151.63 21.207C152.358 21.207 152.971 20.9916 153.468 20.5608C153.973 20.1301 154.226 19.5173 154.226 18.7226V17.6977Z" fill="#332C22"/>
<path d="M141.814 11.0132H145.557L140.621 16.9846L145.991 23.4684H142.137L137.045 17.1517V23.4684H133.647V11.0132H137.045V17.0625L141.814 11.0132Z" fill="#332C22"/>
<path d="M122.397 11.0132V15.8037H127.143V11.0132H130.541V23.4684H127.143V18.3326H122.397V23.4684H118.999V11.0132H122.397Z" fill="#332C22"/>
<path d="M106.297 11.0132V15.9373C106.297 16.1899 106.286 16.5092 106.264 16.8954C106.249 17.2742 106.227 17.6604 106.197 18.0541C106.167 18.4477 106.138 18.8005 106.108 19.1124C106.078 19.4244 106.056 19.636 106.041 19.7474L111.79 11.0132H115.878V23.4684H112.592V18.4997C112.592 18.0912 112.607 17.6419 112.636 17.1517C112.666 16.6541 112.699 16.1861 112.737 15.748C112.774 15.3098 112.8 14.9792 112.814 14.7564L107.088 23.4684H103.011V11.0132H106.297Z" fill="#332C22"/>
<path d="M101.14 13.5644H97.0627V23.4684H93.6648V13.5644H89.5762V11.0132H101.14V13.5644Z" fill="#332C22"/>
<path d="M82.6016 10.7571C84.2727 10.7571 85.5539 11.121 86.4451 11.8489C87.3364 12.5767 87.782 13.6834 87.782 15.1688V23.4685H85.4091L84.7518 21.7752H84.6626C84.3061 22.2208 83.9422 22.5847 83.5709 22.8669C83.1995 23.1492 82.7724 23.3571 82.2897 23.4908C81.8069 23.6245 81.2202 23.6913 80.5295 23.6913C79.7942 23.6913 79.1332 23.5502 78.5464 23.268C77.9671 22.9858 77.5104 22.555 77.1761 21.9757C76.8419 21.389 76.6748 20.6462 76.6748 19.7476C76.6748 18.4255 77.139 17.4526 78.0674 16.8287C78.9958 16.1974 80.3883 15.8483 82.2451 15.7815L84.4064 15.7147V15.1688C84.4064 14.5152 84.2356 14.0361 83.8939 13.7316C83.5523 13.4271 83.077 13.2749 82.4679 13.2749C81.8663 13.2749 81.2759 13.3603 80.6966 13.5311C80.1173 13.7019 79.5379 13.9173 78.9586 14.1773L77.8334 11.8823C78.4944 11.5332 79.2334 11.2584 80.0504 11.0579C80.8748 10.8573 81.7252 10.7571 82.6016 10.7571ZM84.4064 17.6977L83.0918 17.7423C81.9926 17.772 81.2276 17.9688 80.7968 18.3327C80.3735 18.6966 80.1618 19.1757 80.1618 19.7698C80.1618 20.2897 80.3141 20.6611 80.6186 20.8839C80.9231 21.0993 81.3204 21.207 81.8106 21.207C82.5385 21.207 83.1512 20.9916 83.6488 20.5608C84.1539 20.1301 84.4064 19.5173 84.4064 18.7226V17.6977Z" fill="#332C22"/>
<path d="M76.1732 23.4685H72.2294L68.4416 17.3077L64.6538 23.4685H60.9551L66.3583 15.0685L61.3004 7.18091H65.1105L68.6198 13.0409L72.0623 7.18091H75.7833L70.6697 15.2579L76.1732 23.4685Z" fill="#332C22"/>
</svg>
